<?xml version="1.0" encoding="UTF-8"?>
<svg xmlns="http://www.w3.org/2000/svg" xmlns:xlink="http://www.w3.org/1999/xlink" width="24px" height="24px" viewBox="0 0 24 24" version="1.1">
<g id="surface1">
<path style=" stroke:none;fill-rule:nonzero;fill:rgb(0%,0%,0%);fill-opacity:1;" d="M 6.769531 5.15625 C 10.507812 5.15625 13.539062 8.207031 13.539062 11.972656 C 13.539062 15.734375 10.507812 18.785156 6.769531 18.785156 C 3.03125 18.785156 0 15.734375 0 11.972656 C 0 8.207031 3.03125 5.15625 6.769531 5.15625 Z M 17.578125 5.554688 C 19.449219 5.554688 20.960938 8.429688 20.960938 11.972656 C 20.960938 15.515625 19.449219 18.386719 17.578125 18.386719 C 15.710938 18.386719 14.195312 15.515625 14.195312 11.972656 C 14.195312 8.429688 15.710938 5.554688 17.578125 5.554688 Z M 22.808594 6.222656 C 23.46875 6.222656 24 8.796875 24 11.972656 C 24 15.144531 23.46875 17.71875 22.808594 17.71875 C 22.152344 17.71875 21.621094 15.144531 21.621094 11.972656 C 21.621094 8.796875 22.152344 6.222656 22.808594 6.222656 Z M 22.808594 6.222656 "/>
</g>
</svg>
